<?xml version="1.0" encoding="UTF-8"?>
<svg version="1.1" xmlns="http://www.w3.org/2000/svg" width="500" height="500">
<path d="M0 0 C0.92296875 0.72058594 1.8459375 1.44117188 2.796875 2.18359375 C30.57116555 24.31862917 49.06935278 56.72797358 53.5625 92.10546875 C57.47768015 129.75143174 48.13369168 166.5337045 24.3046875 196.21875 C22.38453551 198.53595036 20.43237323 200.80991587 18.4375 203.0625 C15.71548048 205.91164093 15.71548048 205.91164093 15 210 C18.96 210 22.92 210 27 210 C27 211.32 27 212.64 27 214 C19.03847117 216.0241175 19.03847117 216.0241175 15.140625 215.93359375 C5.14707111 215.74336113 -0.57665624 220.23916843 -8.390625 225.7890625 C-36.50663064 245.72522267 -73.90984477 252.49507596 -107.6875 246.8125 C-131.80277895 242.33755639 -154.29149007 231.81611491 -173 216 C-173.51014648 215.56961426 -174.02029297 215.13922852 -174.54589844 214.69580078 C-201.17219929 191.92752767 -218.18735921 159.89277818 -222 125 C-222.30458504 119.97536447 -222.38190899 114.97069734 -222.375 109.9375 C-222.37445618 109.26224274 -222.37391235 108.58698547 -222.37335205 107.89126587 C-222.33035661 96.21628382 -221.19116426 85.25771837 -218 74 C-217.69449219 72.87561523 -217.69449219 72.87561523 -217.3828125 71.72851562 C-207.62309029 36.63568732 -183.32272328 7.24375079 -152.00390625 -10.87451172 C-104.68921422 -37.44867476 -42.77204649 -34.04707382 0 0 Z M-126.875 -11.9375 C-127.70596191 -11.64004883 -128.53692383 -11.34259766 -129.39306641 -11.03613281 C-161.25892798 0.86448279 -186.90093068 25.46665908 -201.28515625 56.11328125 C-203.91388099 61.94471982 -206.06149423 67.90332537 -208 74 C-208.29648438 74.8971875 -208.59296875 75.794375 -208.8984375 76.71875 C-217.94599015 106.4592201 -213.12270589 141.63529148 -199 169 C-180.80881097 201.64835443 -152.95168602 224.65565029 -117 235 C-84.37230017 243.41000378 -49.73839654 238.76410457 -20.3125 222.4375 C-19.6532251 222.07374268 -18.9939502 221.70998535 -18.31469727 221.33520508 C-14.25458203 218.99422355 -11.17269589 216.45174754 -8 213 C-9.23363281 212.29037109 -9.23363281 212.29037109 -10.4921875 211.56640625 C-27.15994312 201.69278196 -38.00513762 189.10901507 -47 172 C-47.61359375 170.85144531 -48.2271875 169.70289063 -48.859375 168.51953125 C-54.77550151 156.9317971 -58.82909876 144.59207311 -63.05175781 132.31542969 C-63.43277397 131.20986725 -63.43277397 131.20986725 -63.82148743 130.08197021 C-64.30452988 128.67665037 -64.78461081 127.27030829 -65.26139832 125.862854 C-66.18527742 122.67973462 -66.18527742 122.67973462 -68 120 C-69.67161553 119.89081293 -71.34781498 119.85093195 -73.02294922 119.83886719 C-74.09431122 119.82925964 -75.16567322 119.8196521 -76.26950073 119.80975342 C-78.01941818 119.8033786 -78.01941818 119.8033786 -79.8046875 119.796875 C-81.58977219 119.78832489 -81.58977219 119.78832489 -83.41091919 119.77960205 C-85.93458156 119.77013473 -88.45825639 119.76361123 -90.98193359 119.75976562 C-94.85145546 119.75005906 -98.72044668 119.7190507 -102.58984375 119.6875 C-105.03645516 119.68097052 -107.48307039 119.67571983 -109.9296875 119.671875 C-111.67353226 119.6533548 -111.67353226 119.6533548 -113.4526062 119.63446045 C-114.53027252 119.63746155 -115.60793884 119.64046265 -116.71826172 119.64355469 C-117.66788788 119.63990906 -118.61751404 119.63626343 -119.59591675 119.63250732 C-122.46679355 120.07135494 -123.2775862 120.70419575 -125 123 C-126.13874432 125.48736704 -127.16548832 127.93320584 -128.13671875 130.484375 C-128.42102249 131.21819397 -128.70532623 131.95201294 -128.99824524 132.70806885 C-129.59643932 134.25985837 -130.19043674 135.8132713 -130.78051758 137.36816406 C-131.68105067 139.73306336 -132.60228797 142.08914655 -133.52539062 144.4453125 C-134.10544766 145.95784269 -134.68426425 147.4708493 -135.26171875 148.984375 C-135.6741407 150.0316275 -135.6741407 150.0316275 -136.09489441 151.10003662 C-137.7496466 155.52765005 -138.41513426 159.20272779 -138 164 C-136.52006844 166.56338689 -136.52006844 166.56338689 -134 168 C-130.832168 168.33448259 -130.832168 168.33448259 -128 168 C-128 169.32 -128 170.64 -128 172 C-141.86 171.67 -155.72 171.34 -170 171 C-170 170.34 -170 169.68 -170 169 C-169.14728516 168.87044922 -169.14728516 168.87044922 -168.27734375 168.73828125 C-167.50519531 168.59777344 -166.73304688 168.45726562 -165.9375 168.3125 C-164.80634766 168.12107422 -164.80634766 168.12107422 -163.65234375 167.92578125 C-158.60398229 166.16368748 -154.98806763 163.45811922 -151.98828125 159.03125 C-151.43527344 157.8659375 -150.88226563 156.700625 -150.3125 155.5 C-149.98475586 154.81099609 -149.65701172 154.12199219 -149.31933594 153.41210938 C-144.80573105 143.72295938 -140.85593032 133.77508177 -136.82032776 123.88053894 C-133.4989232 115.75048167 -130.11072916 107.64839105 -126.72509766 99.54492188 C-124.99041476 95.39186247 -123.26396875 91.23552522 -121.54443359 87.07617188 C-117.94478075 78.37947154 -114.34436256 69.69109229 -110.49429321 61.10160828 C-109.09075798 57.96700745 -107.71392591 54.82103826 -106.33929443 51.67367554 C-105.70284044 50.23900535 -105.05222561 48.81052352 -104.38677979 47.3890686 C-100.64291875 40.16960219 -100.64291875 40.16960219 -100.84350586 32.45068359 C-102.38850673 30.26906791 -103.93116262 28.6845298 -106 27 C-106.81082031 26.33226562 -107.62164062 25.66453125 -108.45703125 24.9765625 C-119.3495207 18.72647735 -128.50481425 18.07063901 -140.6875 21.0625 C-141.780625 21.371875 -142.87375 21.68125 -144 22 C-143.67 21.01 -143.34 20.02 -143 19 C-130.97115342 13.89258344 -117.423684 12.20459895 -105.03125 16.65625 C-88.29834615 24.07392903 -80.97135157 39.48375417 -74.54272461 55.66894531 C-73.09303866 59.55790458 -71.69431354 63.46158473 -70.3125 67.375 C-69.77437101 68.87958298 -69.23569354 70.38396988 -68.6965332 71.88818359 C-65.51749636 80.78393473 -62.40300805 89.7020094 -59.30128479 98.62496948 C-58.42479983 101.14620335 -57.54769766 103.6672092 -56.66929626 106.18777466 C-56.44994699 106.8172444 -56.23059771 107.44671413 -56.00460148 108.09525871 C-55.56020036 109.37051032 -55.11574925 110.64574452 -54.67124844 111.92096138 C-53.15675562 116.26885199 -51.65498246 120.6210196 -50.15551758 124.97412109 C-34.8015548 170.13002454 -34.8015548 170.13002454 -3.25 204.625 C-0.23948184 206.32673712 -0.23948184 206.32673712 1.9453125 205.32421875 C24.04412067 191.08183097 36.79401246 159.47859531 42.65234375 135.30859375 C49.32738821 103.39506004 42.32868975 69.89669884 26 42 C20.74206048 34.04760037 14.52748894 26.92787395 8 20 C7.17628906 19.09701172 7.17628906 19.09701172 6.3359375 18.17578125 C-13.74648121 -3.04431142 -44.74925298 -17.39945582 -73.88357544 -18.26412964 C-76.65635664 -18.31389294 -79.42774664 -18.32434102 -82.20092773 -18.31567383 C-84.30049907 -18.31251804 -86.39864848 -18.33606962 -88.49804688 -18.36132812 C-101.70204825 -18.42445306 -114.41007334 -16.43269599 -126.875 -11.9375 Z M-95 46 C-97.59733367 52.68487778 -100.1931882 59.37032863 -102.78808594 66.05615234 C-103.66829111 68.32353257 -104.54881661 70.59078848 -105.4296875 72.85791016 C-110.35899632 85.54527888 -115.26793659 98.2375508 -120 111 C-117.60417654 112.19791173 -116.13222462 112.1206744 -113.45849609 112.11352539 C-112.04725967 112.11341209 -112.04725967 112.11341209 -110.60751343 112.11329651 C-109.08089584 112.10555458 -109.08089584 112.10555458 -107.5234375 112.09765625 C-106.48305328 112.0962413 -105.44266907 112.09482635 -104.37075806 112.09336853 C-101.03880979 112.08775866 -97.70692805 112.07520447 -94.375 112.0625 C-92.11979264 112.05748627 -89.86458422 112.05292314 -87.609375 112.04882812 C-82.07289386 112.03778603 -76.53645168 112.02103827 -71 112 C-72.3175148 105.650421 -73.99068948 99.57255334 -76.046875 93.42578125 C-76.48740204 92.09633736 -76.48740204 92.09633736 -76.93682861 90.74003601 C-77.55653785 88.8745226 -78.17854119 87.00976984 -78.80273438 85.14575195 C-79.74083453 82.33991374 -80.66772575 79.53054638 -81.59375 76.72070312 C-86.51797662 61.54825142 -86.51797662 61.54825142 -93 47 C-93.66 46.67 -94.32 46.34 -95 46 Z " fill="#61DADF" transform="translate(334,140)"/>
<path d="M0 0 C-0.66 0.99 -1.32 1.98 -2 3 C-3.32 3 -4.64 3 -6 3 C-6 3.66 -6 4.32 -6 5 C-6.66 5.33 -7.32 5.66 -8 6 C-3.53665816 7.72293135 0.10201231 8.22240791 4.875 8.125 C6.02742188 8.10695313 7.17984375 8.08890625 8.3671875 8.0703125 C9.23601562 8.04710938 10.10484375 8.02390625 11 8 C11 8.33 11 8.66 11 9 C9.9584375 9.09796875 8.916875 9.1959375 7.84375 9.296875 C-27.63251096 12.88750515 -58.46911228 27.86952622 -82 55 C-93.02297599 68.6859661 -100.69419987 84.31305608 -106 101 C-106.29648438 101.8971875 -106.59296875 102.794375 -106.8984375 103.71875 C-115.94599015 133.4592201 -111.12270589 168.63529148 -97 196 C-78.98705144 228.32846012 -51.59046615 250.75958379 -16 261 C18.55842617 269.90766116 54.06293549 263.92337921 84.671875 246.05078125 C87.23998222 244.46832082 89.64340466 242.87456447 92 241 C91.01 240.01 90.02 239.02 89 238 C93.68738665 238.90723613 98.34193744 239.9547267 103 241 C103 241.66 103 242.32 103 243 C103.99 243.33 104.98 243.66 106 244 C71.99732503 267.57911082 35.41560223 280.8957056 -6.6875 273.8125 C-30.80277895 269.33755639 -53.29149007 258.81611491 -72 243 C-72.51014648 242.56961426 -73.02029297 242.13922852 -73.54589844 241.69580078 C-100.17219929 218.92752767 -117.18735921 186.89277818 -121 152 C-121.30458504 146.97536447 -121.38190899 141.97069734 -121.375 136.9375 C-121.37445618 136.26224274 -121.37391235 135.58698547 -121.37335205 134.89126587 C-121.33035661 123.21628382 -120.19116426 112.25771837 -117 101 C-116.69449219 99.87561523 -116.69449219 99.87561523 -116.3828125 98.72851562 C-106.62309029 63.63568732 -82.32272328 34.24375079 -51.00390625 16.12548828 C-36.13066133 7.77197231 -17.28531352 -0.30113787 0 0 Z " fill="#CCC3EA" transform="translate(233,113)"/>
<path d="M0 0 C8.25553133 4.13134724 15.85435619 9.00449447 23.08203125 14.7578125 C24.005 15.47839844 24.92796875 16.19898438 25.87890625 16.94140625 C45.05627016 32.22502362 58.53753394 51.28912704 68.08203125 73.7578125 C68.46488281 74.64210938 68.84773437 75.52640625 69.2421875 76.4375 C70.08203125 78.7578125 70.08203125 78.7578125 70.08203125 81.7578125 C69.09203125 82.2528125 69.09203125 82.2528125 68.08203125 82.7578125 C66.94852591 84.77451077 66.94852591 84.77451077 66.08203125 86.7578125 C65.75203125 86.7578125 65.42203125 86.7578125 65.08203125 86.7578125 C64.75203125 88.4078125 64.42203125 90.0578125 64.08203125 91.7578125 C64.74203125 91.7578125 65.40203125 91.7578125 66.08203125 91.7578125 C66.14261719 92.38429688 66.20320312 93.01078125 66.265625 93.65625 C66.34941406 94.47351563 66.43320312 95.29078125 66.51953125 96.1328125 C66.64134766 97.35097656 66.64134766 97.35097656 66.765625 98.59375 C66.97293239 100.80054055 66.97293239 100.80054055 68.08203125 102.7578125 C68.16575784 104.27929576 68.18933152 105.80437028 68.1796875 107.328125 C68.17646484 108.22402344 68.17324219 109.11992187 68.16992188 110.04296875 C68.16154297 110.98011719 68.15316406 111.91726562 68.14453125 112.8828125 C68.14001953 113.82769531 68.13550781 114.77257812 68.13085938 115.74609375 C68.11905482 118.08339637 68.10258884 120.42057311 68.08203125 122.7578125 C67.75203125 122.7578125 67.42203125 122.7578125 67.08203125 122.7578125 C67.04335938 121.46423828 67.04335938 121.46423828 67.00390625 120.14453125 C65.35006582 84.54937472 50.35888978 53.63778764 24.45703125 29.2578125 C-4.26317917 3.09632844 -40.22456379 -4.26385641 -78.04296875 -3.08203125 C-81.28469514 -3.26261655 -83.89360742 -4.09455039 -86.91796875 -5.2421875 C-86.58796875 -5.9021875 -86.25796875 -6.5621875 -85.91796875 -7.2421875 C-85.25796875 -7.2421875 -84.59796875 -7.2421875 -83.91796875 -7.2421875 C-83.91796875 -7.9021875 -83.91796875 -8.5621875 -83.91796875 -9.2421875 C-82.25130208 -9.90885417 -80.58463542 -10.57552083 -78.91796875 -11.2421875 C-78.14855957 -11.58918701 -77.37915039 -11.93618652 -76.58642578 -12.29370117 C-54.14454741 -20.27052619 -20.40191075 -9.64484487 0 0 Z " fill="#6CD8DF" transform="translate(310.91796875,125.2421875)"/>
<path d="M0 0 C4.68738665 0.90723613 9.34193744 1.9547267 14 3 C14 3.66 14 4.32 14 5 C14.99 5.33 15.98 5.66 17 6 C-17.00449582 29.5803735 -53.5826723 42.89286594 -95.6875 35.8125 C-104.00610508 34.27423182 -112.03034888 31.8041365 -120 29 C-121.03898438 28.63519531 -122.07796875 28.27039063 -123.1484375 27.89453125 C-129.70467557 25.44298664 -129.70467557 25.44298664 -132 22 C-131.65394389 19.71602968 -131.03295481 18.06590963 -130 16 C-124.18450661 16.53281615 -119.36160164 17.77104805 -113.9375 19.875 C-82.47060823 31.51077889 -47.36525155 28.76003847 -17 15 C-10.08682111 11.53496299 -3.0641479 7.82375401 3 3 C2.01 2.01 1.02 1.02 0 0 Z " fill="#A1CCE4" transform="translate(322,351)"/>
<path d="M0 0 C-0.66 0.99 -1.32 1.98 -2 3 C-3.32 3 -4.64 3 -6 3 C-6 3.66 -6 4.32 -6 5 C-6.66 5.33 -7.32 5.66 -8 6 C-3.53665816 7.72293135 0.10201231 8.22240791 4.875 8.125 C6.02742188 8.10695313 7.17984375 8.08890625 8.3671875 8.0703125 C9.67042969 8.03550781 9.67042969 8.03550781 11 8 C11 8.33 11 8.66 11 9 C9.9584375 9.09796875 8.916875 9.1959375 7.84375 9.296875 C-27.57945632 12.88213538 -58.54537644 27.84127915 -82 55 C-89.12049175 63.96933674 -94.87385824 73.7827072 -100 84 C-100.33 83.34 -100.66 82.68 -101 82 C-101.66 82 -102.32 82 -103 82 C-103.495 82.99 -103.495 82.99 -104 84 C-106.32156597 84.40729228 -108.6568787 84.74438677 -111 85 C-101.60635101 54.18883132 -74.58718451 28.94875481 -47.12890625 13.97998047 C-33.25423786 6.70323906 -15.83259394 -0.27582916 0 0 Z " fill="#C1C6E8" transform="translate(233,113)"/>
<path d="M0 0 C0.33 0.66 0.66 1.32 1 2 C1.66 2 2.32 2 3 2 C3 3.65 3 5.3 3 7 C3.99 7.33 4.98 7.66 6 8 C6.33 7.34 6.66 6.68 7 6 C7.66 6 8.32 6 9 6 C9 4.02 9 2.04 9 0 C11.65493796 3.25110666 13.34347649 6.64638355 15.125 10.4375 C21.21832463 22.92194332 29.43682506 33.07331256 39 43 C39.71671875 43.79148437 40.4334375 44.58296875 41.171875 45.3984375 C50.28511427 55.16262243 62.19756686 61.96382837 74 68 C72.515 68.495 72.515 68.495 71 69 C70.67 71.64 70.34 74.28 70 77 C38.19341848 62.88582945 12.66621753 35.33660171 0 3 C0 2.01 0 1.02 0 0 Z " fill="#C3C5E8" transform="translate(121,298)"/>
<path d="M0 0 C1.85312312 0.92391715 3.68768757 1.88494154 5.51708984 2.85498047 C2.84317744 3.7462846 0.27985162 4.33229581 -2.48291016 4.85498047 C-2.15291016 5.18498047 -1.82291016 5.51498047 -1.48291016 5.85498047 C-1.44227184 7.52115162 -1.44018915 9.18886142 -1.48291016 10.85498047 C-2.41490234 10.46826172 -3.34689453 10.08154297 -4.30712891 9.68310547 C-27.75621457 0.05566052 -50.35546335 -2.77400224 -75.60791016 -1.98486328 C-78.84963654 -2.16544858 -81.45854883 -2.99738242 -84.48291016 -4.14501953 C-84.15291016 -4.80501953 -83.82291016 -5.46501953 -83.48291016 -6.14501953 C-82.82291016 -6.14501953 -82.16291016 -6.14501953 -81.48291016 -6.14501953 C-81.48291016 -6.80501953 -81.48291016 -7.46501953 -81.48291016 -8.14501953 C-79.81624349 -8.8116862 -78.14957682 -9.47835286 -76.48291016 -10.14501953 C-75.71350098 -10.49201904 -74.9440918 -10.83901855 -74.15136719 -11.1965332 C-52.6352499 -18.84430225 -19.7471565 -9.10660413 0 0 Z " fill="#8CCFE1" transform="translate(308.48291015625,124.14501953125)"/>
<path d="M0 0 C4.68738665 0.90723613 9.34193744 1.9547267 14 3 C14 3.66 14 4.32 14 5 C14.99 5.33 15.98 5.66 17 6 C-28.94497856 37.86048575 -28.94497856 37.86048575 -52.140625 34.62109375 C-54.98255018 33.67179521 -55.60349877 31.53909315 -57 29 C-60.59919423 28.10407917 -60.59919423 28.10407917 -64 28 C-64 27.67 -64 27.34 -64 27 C-63.01902344 26.90203125 -62.03804688 26.8040625 -61.02734375 26.703125 C-38.60053628 24.2922432 -14.94001061 17.27046299 3 3 C2.01 2.01 1.02 1.02 0 0 Z " fill="#8CD1E3" transform="translate(322,351)"/>
<path d="M0 0 C-0.66 0.99 -1.32 1.98 -2 3 C-3.32 3 -4.64 3 -6 3 C-6 3.66 -6 4.32 -6 5 C-6.66 5.33 -7.32 5.66 -8 6 C-3.53665816 7.72293135 0.10201231 8.22240791 4.875 8.125 C6.02742188 8.10695313 7.17984375 8.08890625 8.3671875 8.0703125 C9.67042969 8.03550781 9.67042969 8.03550781 11 8 C11 8.33 11 8.66 11 9 C9.9584375 9.09796875 8.916875 9.1959375 7.84375 9.296875 C-14.89169184 11.59797892 -34.37309444 18.37558586 -54 30 C-54.66 30.33 -55.32 30.66 -56 31 C-55.7215625 30.1028125 -55.7215625 30.1028125 -55.4375 29.1875 C-54.77906313 26.83591238 -54.77906313 26.83591238 -56 24 C-53.45312099 21.81696085 -51.44767281 20.15261573 -48.25 19.0625 C-47.5075 18.711875 -46.765 18.36125 -46 18 C-45.93039063 17.22527344 -45.86078125 16.45054687 -45.7890625 15.65234375 C-45 13 -45 13 -42.0703125 11.15625 C-40.76552218 10.58021425 -39.44927435 10.02970974 -38.125 9.5 C-37.42334717 9.20593262 -36.72169434 8.91186523 -35.9987793 8.60888672 C-25.12848505 4.23029267 -11.82777823 -0.33793652 0 0 Z " fill="#ABC9E4" transform="translate(233,113)"/>
<path d="M0 0 C5.86401476 0.60872786 9.91181588 2.18629093 14.79370117 5.44067383 C15.46997559 5.87710205 16.14625 6.31353027 16.84301758 6.76318359 C24.70238365 11.97131863 33.83477919 18.22104085 39.10620117 26.12817383 C36.79620117 25.79817383 34.48620117 25.46817383 32.10620117 25.12817383 C32.45669692 28.3702595 32.66841298 29.74345087 35.16870117 31.94067383 C35.80807617 32.33254883 36.44745117 32.72442383 37.10620117 33.12817383 C36.44620117 34.11817383 35.78620117 35.10817383 35.10620117 36.12817383 C34.60733398 35.59450195 34.1084668 35.06083008 33.59448242 34.51098633 C24.44969919 25.02142671 14.43691726 17.37456343 2.77954102 11.2590332 C0.93041992 10.23364258 0.93041992 10.23364258 -1.89379883 8.12817383 C-2.31176758 5.36645508 -2.31176758 5.36645508 -1.89379883 3.12817383 C-2.55379883 2.79817383 -3.21379883 2.46817383 -3.89379883 2.12817383 C-1.89379883 0.12817383 -1.89379883 0.12817383 0 0 Z " fill="#7CD4DF" transform="translate(308.893798828125,126.871826171875)"/>
<path d="M0 0 C4.68738665 0.90723613 9.34193744 1.9547267 14 3 C14 3.66 14 4.32 14 5 C14.99 5.33 15.98 5.66 17 6 C8.37496213 11.94357866 -0.23969863 17.83078815 -9.5 22.75 C-10.44178101 23.25176758 -10.44178101 23.25176758 -11.40258789 23.76367188 C-15.72074513 26 -15.72074513 26 -18 26 C-17.67 24.68 -17.34 23.36 -17 22 C-18.98 22.33 -20.96 22.66 -23 23 C-22.505 21.515 -22.505 21.515 -22 20 C-18.535 19.505 -18.535 19.505 -15 19 C-15 18.01 -15 17.02 -15 16 C-14.34 16 -13.68 16 -13 16 C-13 15.01 -13 14.02 -13 13 C-11.53125 11.74145508 -11.53125 11.74145508 -9.5 10.51953125 C-8.4171875 9.85727539 -8.4171875 9.85727539 -7.3125 9.18164062 C-6.549375 8.72982422 -5.78625 8.27800781 -5 7.8125 C-4.236875 7.34908203 -3.47375 6.88566406 -2.6875 6.40820312 C-0.79731897 5.26228088 1.09841136 4.12685563 3 3 C2.01 2.01 1.02 1.02 0 0 Z " fill="#7CD4DF" transform="translate(322,351)"/>
<path d="M0 0 C3.37882179 2.3933321 4.67073608 4.03278722 6 7.9375 C6 11.84455719 5.21495196 13.78474715 3 17 C0.26190619 19.03765121 -1.59895444 20.08756535 -5.0625 19.87109375 C-8.20659292 19.22956008 -10.46158583 18.42063607 -13 16.4375 C-14.57536322 12.59755215 -14.74701123 9.07592538 -14 5 C-10.52139864 -0.49843441 -6.09009571 -1.36806498 0 0 Z " fill="#61DADE" transform="translate(336,293)"/>
<path d="M0 0 C0.33 0.66 0.66 1.32 1 2 C1.67417969 1.83628906 2.34835938 1.67257813 3.04296875 1.50390625 C6.51367906 0.9124642 9.79322124 0.90460954 13.3125 0.9375 C14.56675781 0.94652344 15.82101563 0.95554687 17.11328125 0.96484375 C18.06589844 0.97644531 19.01851563 0.98804687 20 1 C21.0625 2.8125 21.0625 2.8125 22 5 C21.67 5.99 21.34 6.98 21 8 C23.64 8.33 26.28 8.66 29 9 C29 9.33 29 9.66 29 10 C23.98292465 10.04961356 18.96599365 10.08582043 13.94873047 10.10986328 C12.24362702 10.1198914 10.53854064 10.13351726 8.83349609 10.15087891 C6.37593358 10.17526803 3.91859939 10.18651512 1.4609375 10.1953125 C0.70444916 10.20563507 -0.05203918 10.21595764 -0.83145142 10.22659302 C-5.27822943 10.22752561 -8.86910217 9.65121642 -13 8 C-12.67 7.34 -12.34 6.68 -12 6 C-11.34 6 -10.68 6 -10 6 C-10 5.34 -10 4.68 -10 4 C-6.66666667 2.66666667 -3.33333333 1.33333333 0 0 Z " fill="#99CDE6" transform="translate(237,112)"/>
<path d="M0 0 C6.38590815 0.4115363 10.4114255 1.92512363 15.75 5.375 C16.71873047 5.97441406 16.71873047 5.97441406 17.70703125 6.5859375 C20.91592358 8.58902429 24.0185767 10.66605752 27 13 C26.01 13 25.02 13 24 13 C23.67 15.64 23.34 18.28 23 21 C13.38794458 16.57788575 5.23155761 11.64856576 -3 5 C-2.01 3.35 -1.02 1.7 0 0 Z " fill="#B4C7E6" transform="translate(168,354)"/>
<path d="M0 0 C0 0.66 0 1.32 0 2 C-3.3 2 -6.6 2 -10 2 C-9.67 3.32 -9.34 4.64 -9 6 C-11.22771342 6.50643553 -13.45724076 7.0048962 -15.6875 7.5 C-17.54955078 7.91765625 -17.54955078 7.91765625 -19.44921875 8.34375 C-22.42398218 8.89354126 -24.99368602 9.13795705 -28 9 C-27.67 7.68 -27.34 6.36 -27 5 C-9.4625922 -0.29570601 -9.4625922 -0.29570601 0 0 Z " fill="#6BD3D4" transform="translate(218,153)"/>
<path d="M0 0 C2 2 2 2 2 5 C1.01 5.495 1.01 5.495 0 6 C-1.13350534 8.01669827 -1.13350534 8.01669827 -2 10 C-2.33 10 -2.66 10 -3 10 C-3.33 11.65 -3.66 13.3 -4 15 C-3.34 15 -2.68 15 -2 15 C-1.93941406 15.62648437 -1.87882812 16.25296875 -1.81640625 16.8984375 C-1.69072266 18.12433594 -1.69072266 18.12433594 -1.5625 19.375 C-1.48128906 20.18710938 -1.40007812 20.99921875 -1.31640625 21.8359375 C-1.10909886 24.04272805 -1.10909886 24.04272805 0 26 C0.08372659 27.52148326 0.10730027 29.04655778 0.09765625 30.5703125 C0.09282227 31.91416016 0.09282227 31.91416016 0.08789062 33.28515625 C0.07951172 34.22230469 0.07113281 35.15945312 0.0625 36.125 C0.05798828 37.06988281 0.05347656 38.01476562 0.04882812 38.98828125 C0.03702357 41.32558387 0.02055759 43.66276061 0 46 C-0.33 46 -0.66 46 -1 46 C-1.02578125 45.13761719 -1.0515625 44.27523437 -1.078125 43.38671875 C-1.54598046 33.31719336 -3.32499598 23.85062667 -5.55859375 14.03466797 C-6.13643746 11.37108972 -6.58628148 8.69347997 -7 6 C-4.69 5.34 -2.38 4.68 0 4 C0 2.68 0 1.36 0 0 Z " fill="#71D1D6" transform="translate(379,202)"/>
<path d="M0 0 C0.33 0.66 0.66 1.32 1 2 C-0.2065625 3.11375 -0.2065625 3.11375 -1.4375 4.25 C-4.31652886 6.89498047 -4.31652886 6.89498047 -5 11 C0.445 11.495 0.445 11.495 6 12 C6 12.33 6 12.66 6 13 C-1.59 13 -9.18 13 -17 13 C-17 11.68 -17 10.36 -17 9 C-16.41992188 8.90203125 -15.83984375 8.8040625 -15.2421875 8.703125 C-10.00678531 7.70096881 -6.24138129 6.41379469 -2 3 C-1.34 2.01 -0.68 1.02 0 0 Z " fill="#68C6D8" transform="translate(181,299)"/>
<path d="M0 0 C4 0 4 0 7 1 C6.67 2.65 6.34 4.3 6 6 C5.34 6 4.68 6 4 6 C4 7.32 4 8.64 4 10 C4.66 10 5.32 10 6 10 C6.33 10.99 6.66 11.98 7 13 C7.66 12.67 8.32 12.34 9 12 C8.67 14.64 8.34 17.28 8 20 C8.66 20 9.32 20 10 20 C10 21.65 10 23.3 10 25 C7.80625571 22.27723757 6.37049603 19.80482829 5.17578125 16.5234375 C4.71655273 15.27046875 4.71655273 15.27046875 4.24804688 13.9921875 C3.93931641 13.12851562 3.63058594 12.26484375 3.3125 11.375 C2.99216797 10.50359375 2.67183594 9.6321875 2.34179688 8.734375 C0 2.28319896 0 2.28319896 0 0 Z " fill="#68DADC" transform="translate(273,279)"/>
<path d="M0 0 C3.46868241 3.46868241 4.84443628 6.62794739 6.75 11.0625 C7.07871094 11.79533203 7.40742188 12.52816406 7.74609375 13.28320312 C8.56358346 15.16135987 9.28925744 17.07890468 10 19 C9.67 19.66 9.34 20.32 9 21 C7 18 7 18 7 15 C6.34 15 5.68 15 5 15 C5 13.68 5 12.36 5 11 C4.01 11.495 4.01 11.495 3 12 C2.67 12.99 2.34 13.98 2 15 C1.01 15 0.02 15 -1 15 C-1.33 14.01 -1.66 13.02 -2 12 C-1.34 12 -0.68 12 0 12 C0 8.04 0 4.08 0 0 Z " fill="#6AD5D9" transform="translate(250,176)"/>
<path d="M0 0 C4.71320756 0.51518074 7.74398212 1.76798818 11.6875 4.375 C12.61949219 4.98085937 13.55148438 5.58671875 14.51171875 6.2109375 C16.57469033 7.69420435 18.28946569 9.13500272 20 11 C19.67 11.66 19.34 12.32 19 13 C18.34 12.34 17.68 11.68 17 11 C13.41656024 10.83322718 13.41656024 10.83322718 10 11 C10.33 9.35 10.66 7.7 11 6 C8.11785113 6.88214887 8.11785113 6.88214887 6 8 C5.34 7.67 4.68 7.34 4 7 C4.33 5.35 4.66 3.7 5 2 C3.35 2 1.7 2 0 2 C0 1.34 0 0.68 0 0 Z " fill="#67D5D3" transform="translate(224,155)"/>
<path d="M0 0 C3.19199167 2.41556126 5.74716687 4.68003538 8 8 C7.67 8.66 7.34 9.32 7 10 C6.401875 9.814375 5.80375 9.62875 5.1875 9.4375 C2.83591238 8.77906313 2.83591238 8.77906313 0 10 C0.474375 10.7425 0.94875 11.485 1.4375 12.25 C2.77869327 14.61050015 3.512312 16.36648477 4 19 C0.71211176 15.88983545 -1.83735988 12.98381075 -4 9 C-2.35 8.01 -0.7 7.02 1 6 C0.67 4.02 0.34 2.04 0 0 Z " fill="#7AD1DB" transform="translate(354,160)"/>
<path d="M0 0 C1.91541138 -0.10841951 3.83259773 -0.18578079 5.75 -0.25 C6.81734375 -0.29640625 7.8846875 -0.3428125 8.984375 -0.390625 C12 0 12 0 14.390625 1.890625 C16 4 16 4 16 6 C10.23955788 5.39363767 5.27985631 3.24341721 0 1 C0 0.67 0 0.34 0 0 Z " fill="#ADC7E4" transform="translate(194,376)"/>
<path d="M0 0 C3.96 0 7.92 0 12 0 C12 1.32 12 2.64 12 4 C9.36 4.33 6.72 4.66 4 5 C4 4.34 4 3.68 4 3 C2.68 2.34 1.36 1.68 0 1 C0 0.67 0 0.34 0 0 Z " fill="#65CED2" transform="translate(349,350)"/>
<path d="M0 0 C1 3 1 3 0 6 C-0.4378085 10.6414917 -0.4378085 10.6414917 1.125 14.875 C3.67384706 16.40430823 6.07238473 16.67470941 9 17 C9 17.99 9 18.98 9 20 C8.34 20 7.68 20 7 20 C7 19.34 7 18.68 7 18 C4.69 18 2.38 18 0 18 C0 17.34 0 16.68 0 16 C-0.99 15.67 -1.98 15.34 -3 15 C-2.88529863 13.24929483 -2.75780972 11.49942464 -2.625 9.75 C-2.55539063 8.77546875 -2.48578125 7.8009375 -2.4140625 6.796875 C-2.01534751 4.10366811 -1.36492937 2.33036721 0 0 Z " fill="#69D2D0" transform="translate(197,291)"/>
<path d="M0 0 C7 8.44827586 7 8.44827586 7 12 C4.03 11.505 4.03 11.505 1 11 C1 10.01 1 9.02 1 8 C0.34 8 -0.32 8 -1 8 C-0.67 5.36 -0.34 2.72 0 0 Z " fill="#6DD6DB" transform="translate(365,174)"/>
<path d="M0 0 C1.17732706 3.67914707 1 7.16659144 1 11 C1.33 11.66 1.66 12.32 2 13 C0.68 13.99 -0.64 14.98 -2 16 C-2 15.34 -2 14.68 -2 14 C-2.99 14 -3.98 14 -5 14 C-3.45730076 9.27934033 -1.92205381 4.58335908 0 0 Z " fill="#6AD3D6" transform="translate(223,199)"/>
<path d="M0 0 C4.26466911 1.15261327 7.66429885 0.76512373 12 0 C9.15819378 1.89453748 6.68435185 3.00192814 3.5 4.1875 C2.5409375 4.55230469 1.581875 4.91710937 0.59375 5.29296875 C-2 6 -2 6 -5 5 C-4.34 4.34 -3.68 3.68 -3 3 C-3.99 2.01 -4.98 1.02 -6 0 C-3.44211818 -1.27894091 -2.70140697 -0.77183056 0 0 Z " fill="#89CDDB" transform="translate(292,377)"/>
<path d="M0 0 C0.66 0 1.32 0 2 0 C1.67 1.32 1.34 2.64 1 4 C0.34 4 -0.32 4 -1 4 C-0.72001908 7.63975198 -0.46510657 10.29303801 1.5625 13.375 C5.03178003 15.68785335 7.8593331 15.72395554 12 16 C9 18 9 18 7.0625 17.8984375 C3.95024114 17.10858392 1.55253592 16.43166869 -1 14.4375 C-2.5266407 10.71631329 -2.56242971 6.96622508 -2 3 C-1.34 2.01 -0.68 1.02 0 0 Z " fill="#76D1D1" transform="translate(324,295)"/>
<path d="M0 0 C0.33 0.66 0.66 1.32 1 2 C-0.2065625 3.0828125 -0.2065625 3.0828125 -1.4375 4.1875 C-4.02292072 7.02515689 -4.68042813 8.27166147 -5 12 C-8.3 12 -11.6 12 -15 12 C-15 11.34 -15 10.68 -15 10 C-12.69 10 -10.38 10 -8 10 C-8 9.01 -8 8.02 -8 7 C-6.02678947 5.6273318 -4.02456848 4.29572383 -2 3 C-1.34 2.01 -0.68 1.02 0 0 Z " fill="#63D2D9" transform="translate(181,299)"/>
<path d="M0 0 C0.78890625 0.13921875 1.5778125 0.2784375 2.390625 0.421875 C3.18984375 0.55078125 3.9890625 0.6796875 4.8125 0.8125 C5.41578125 0.93109375 6.0190625 1.0496875 6.640625 1.171875 C6.640625 1.831875 6.640625 2.491875 6.640625 3.171875 C7.300625 3.501875 7.960625 3.831875 8.640625 4.171875 C3.690625 4.171875 -1.259375 4.171875 -6.359375 4.171875 C-2.359375 0.171875 -2.359375 0.171875 0 0 Z " fill="#5ED4D9" transform="translate(197.359375,307.828125)"/>
<path d="M0 0 C2.05710856 3.08566284 2.78346093 5.36985312 3.6875 8.9375 C3.95949219 9.97777344 4.23148437 11.01804688 4.51171875 12.08984375 C4.97828785 14.8705956 4.93894816 16.38480882 4 19 C2.57741188 15.17679443 1.75957724 12.08718695 2 8 C1.01 8.33 0.02 8.66 -1 9 C-1.33 8.01 -1.66 7.02 -2 6 C-1.34 6 -0.68 6 0 6 C0 4.02 0 2.04 0 0 Z " fill="#6ED2D5" transform="translate(381,208)"/>
<path d="M0 0 C0.66 0 1.32 0 2 0 C2.66 1.65 3.32 3.3 4 5 C3.34 5.66 2.68 6.32 2 7 C1.67 7.66 1.34 8.32 1 9 C-1.475 8.01 -1.475 8.01 -4 7 C-2.84826645 4.53199953 -1.95216435 2.95216435 0 1 C0 0.67 0 0.34 0 0 Z " fill="#70D8E7" transform="translate(344,342)"/>
<path d="M0 0 C0.33 0 0.66 0 1 0 C1.66 2.64 2.32 5.28 3 8 C2.4225 8.2475 1.845 8.495 1.25 8.75 C-1.3002997 10.16683317 -3.01785701 11.87627537 -5 14 C-3.45730076 9.27934033 -1.92205381 4.58335908 0 0 Z " fill="#6BD1D6" transform="translate(214,221)"/>
<path d="M0 0 C2.26360165 3.39540247 2.19664788 4.48282063 2.0625 8.4375 C1.95566437 11.85159516 2.00022164 14.72165702 3 18 C1.68 18.33 0.36 18.66 -1 19 C-0.67 12.73 -0.34 6.46 0 0 Z " fill="#6DD1D7" transform="translate(378,253)"/>
<path d="M0 0 C0.66 0 1.32 0 2 0 C2 1.32 2 2.64 2 4 C2.66 4 3.32 4 4 4 C4 5.65 4 7.3 4 9 C2.68 9.33 1.36 9.66 0 10 C-0.19412181 8.52168779 -0.38012131 7.04230684 -0.5625 5.5625 C-0.66691406 4.73878906 -0.77132813 3.91507813 -0.87890625 3.06640625 C-0.91886719 2.38449219 -0.95882813 1.70257813 -1 1 C-0.67 0.67 -0.34 0.34 0 0 Z " fill="#61DBDF" transform="translate(375,197)"/>
<path d="M0 0 C1.485 0.99 1.485 0.99 3 2 C3.66 1.67 4.32 1.34 5 1 C4.67 3.64 4.34 6.28 4 9 C4.66 9 5.32 9 6 9 C6 10.65 6 12.3 6 14 C3.52813545 11.03653214 2.33751639 8.45958311 1.3125 4.75 C1.06113281 3.85796875 0.80976563 2.9659375 0.55078125 2.046875 C0.36902344 1.37140625 0.18726563 0.6959375 0 0 Z " fill="#6FD4D6" transform="translate(277,290)"/>
<path d="M0 0 C1.89453748 2.84180622 3.00192814 5.31564815 4.1875 8.5 C4.55230469 9.4590625 4.91710937 10.418125 5.29296875 11.40625 C6 14 6 14 5 17 C4.54625 15.9275 4.0925 14.855 3.625 13.75 C1.44570694 8.47192092 1.44570694 8.47192092 -2 4 C-1.34 2.68 -0.68 1.36 0 0 Z " fill="#6ED2D5" transform="translate(266,214)"/>
<path d="M0 0 C0.99 0 1.98 0 3 0 C3 2.31 3 4.62 3 7 C3.66 7.33 4.32 7.66 5 8 C5.4140625 10.06640625 5.4140625 10.06640625 5.625 12.5625 C5.69976562 13.38878906 5.77453125 14.21507812 5.8515625 15.06640625 C5.90054688 15.70449219 5.94953125 16.34257812 6 17 C3.97774806 13.9666221 3.00652476 11.38655511 1.875 7.9375 C1.52179688 6.87402344 1.16859375 5.81054688 0.8046875 4.71484375 C0 2 0 2 0 0 Z " fill="#71D1D1" transform="translate(250,211)"/>
<path d="M0 0 C0.66 0.99 1.32 1.98 2 3 C1.34 3 0.68 3 0 3 C-0.0825 4.27875 -0.165 5.5575 -0.25 6.875 C-0.390625 9.0546875 -0.390625 9.0546875 -1 11 C-2.98 11.99 -2.98 11.99 -5 13 C-3.35 8.71 -1.7 4.42 0 0 Z " fill="#6FD1D6" transform="translate(205,243)"/>
<path d="M0 0 C1.231394 3.69418201 0.64432764 6.2056261 0 10 C-1.65 10.66 -3.3 11.32 -5 12 C-3.68938409 7.76570244 -2.05643741 3.92592596 0 0 Z " fill="#76CDDB" transform="translate(369,298)"/>
<path d="M0 0 C0.99 0 1.98 0 3 0 C3.33 1.65 3.66 3.3 4 5 C2.824375 5.4640625 2.824375 5.4640625 1.625 5.9375 C-0.92330128 6.92875038 -0.92330128 6.92875038 -3 8 C-1.125 2.25 -1.125 2.25 0 0 Z " fill="#67D5D9" transform="translate(185,291)"/>
<path d="M0 0 C2.93200474 2.85276137 5.64315404 5.65079784 8 9 C6.35 8.67 4.7 8.34 3 8 C3 7.34 3 6.68 3 6 C2.01 6 1.02 6 0 6 C0 4.02 0 2.04 0 0 Z " fill="#6ED3D6" transform="translate(314,328)"/>
<path d="M0 0 C0.433125 0.9590625 0.433125 0.9590625 0.875 1.9375 C1.82823451 4.15206079 1.82823451 4.15206079 4 5 C-0.75 8 -0.75 8 -3 8 C-2.37240135 5.07120629 -1.41377341 2.63904371 0 0 Z " fill="#7ED7E1" transform="translate(360,315)"/>
<path d="M0 0 C0.66 1.32 1.32 2.64 2 4 C-1.93670488 5.31223496 -4.12488144 4.24296256 -8 3 C-5.36095629 1.58622659 -2.92879371 0.62759865 0 0 Z " fill="#8ECAD9" transform="translate(290,123)"/>
<path d="M0 0 C1.32 0.99 2.64 1.98 4 3 C2.35 4.98 0.7 6.96 -1 9 C-1.66 8.67 -2.32 8.34 -3 8 C-3 7.34 -3 6.68 -3 6 C-2.01 6 -1.02 6 0 6 C0 4.02 0 2.04 0 0 Z " fill="#72D3D6" transform="translate(357,330)"/>
<path d="M0 0 C0.66 0 1.32 0 2 0 C2 0.66 2 1.32 2 2 C2.99 1.34 3.98 0.68 5 0 C5.99 0.33 6.98 0.66 8 1 C2.25 5 2.25 5 0 5 C-0.33 4.01 -0.66 3.02 -1 2 C-0.67 1.34 -0.34 0.68 0 0 Z " fill="#81CFDE" transform="translate(324,361)"/>
<path d="M0 0 C2.64465038 3.1254959 3.84414715 6.08788267 5 10 C4.01 10 3.02 10 2 10 C0.68373308 6.38026598 0 3.90432869 0 0 Z " fill="#6FD2D4" transform="translate(299,303)"/>
<path d="M0 0 C0.99 0.495 0.99 0.495 2 1 C2 1.66 2 2.32 2 3 C3.32 3 4.64 3 6 3 C5.34 4.98 4.68 6.96 4 9 C1.3144406 6.3144406 0.93950026 3.62378672 0 0 Z " fill="#6ED1D4" transform="translate(368,198)"/>
<path d="M0 0 C4.59817352 1.45205479 4.59817352 1.45205479 6.375 3.875 C7.09806909 6.3334349 6.85178626 7.61499846 6 10 C5.0234375 8.27473958 4.046875 6.54947917 3.0703125 4.82421875 C2.10571419 3.18017711 1.05732941 1.58599412 0 0 Z " fill="#73D2D3" transform="translate(228,167)"/>
<path d="M0 0 C0.66 0.66 1.32 1.32 2 2 C0.68 5.3 -0.64 8.6 -2 12 C-3.15957207 8.52128379 -2.77456651 7.65780355 -1.5625 4.3125 C-1.13130859 3.10013672 -1.13130859 3.10013672 -0.69140625 1.86328125 C-0.46324219 1.24839844 -0.23507813 0.63351563 0 0 Z " fill="#6FD1D3" transform="translate(220,230)"/>
</svg>
